<?xml version="1.0"?><svg id="Layer_2" xmlns="http://www.w3.org/2000/svg" viewBox="0 0 767.39 300.19"><defs></defs><g id="Layer_1-2"><polygon class="cls-1" points="292.04 42.02 355.07 42.02 345.04 84.04 279.33 84.04 262.78 130.07 271.98 126.05 197.38 300.19 224.14 185.06 214.91 189.08 239.99 84.04 176.96 84.04 187 42.02 250.02 42.02 260.06 0 302.07 0 292.04 42.02"></polygon><path class="cls-2" d="m105.98,84.04c4.78,0,8.94-3.28,10.05-7.93,1.44-6.02,3.44-14.41,5.1-21.36.74-3.08.02-6.32-1.94-8.8s-4.95-3.93-8.11-3.93H40.13L50.16,0h73.7c12.65,0,24.6,5.79,32.43,15.72,7.84,9.93,10.7,22.9,7.76,35.2-3.5,14.68-7.22,30.26-10.36,43.41-4.44,18.6-21.07,31.72-40.19,31.72h-51.42l-20.07,84.04H0l30.1-126.05h75.88Z"></path><polygon class="cls-2" points="386.16 0 428.18 0 388.05 168.07 430.07 168.07 420.03 210.09 336 210.09 386.16 0"></polygon><path class="cls-2" d="m701.01,146.03c0-1.53-.54-2.7-1.62-3.52-1.08-.82-3.02-1.68-5.83-2.59-2.81-.91-5.03-1.8-6.66-2.68-4.46-2.41-6.69-5.66-6.69-9.74,0-2.12.6-4.02,1.79-5.68,1.2-1.66,2.91-2.96,5.15-3.9,2.24-.94,4.75-1.4,7.54-1.4s5.31.51,7.5,1.52c2.2,1.02,3.9,2.45,5.11,4.3,1.22,1.85,1.82,3.96,1.82,6.31h-8.1c0-1.8-.57-3.2-1.7-4.2-1.13-1-2.73-1.5-4.78-1.5s-3.52.42-4.61,1.26c-1.1.84-1.65,1.94-1.65,3.3,0,1.28.64,2.35,1.93,3.21,1.29.86,3.18,1.67,5.68,2.43,4.6,1.39,7.96,3.1,10.07,5.15,2.1,2.05,3.16,4.61,3.16,7.66,0,3.4-1.29,6.07-3.86,8s-6.03,2.9-10.39,2.9c-3.02,0-5.78-.55-8.26-1.66s-4.38-2.62-5.68-4.55c-1.3-1.93-1.96-4.16-1.96-6.69h8.12c0,4.33,2.59,6.5,7.77,6.5,1.92,0,3.43-.39,4.51-1.17,1.08-.78,1.62-1.88,1.62-3.28Zm-29.2-6.72h-15.54v10.52h18.24v6.5h-26.34v-39.29h26.28v6.56h-18.19v9.36h15.54v6.34Zm-30.33,3.94c-.31,4.23-1.87,7.56-4.68,9.98-2.82,2.43-6.53,3.64-11.13,3.64-5.04,0-9-1.7-11.89-5.09-2.89-3.39-4.33-8.04-4.33-13.96v-2.4c0-3.78.66-7.11,2-9.98,1.33-2.88,3.23-5.09,5.71-6.62,2.47-1.54,5.35-2.31,8.62-2.31,4.53,0,8.18,1.21,10.96,3.64,2.77,2.43,4.37,5.84,4.8,10.23h-8.09c-.2-2.54-.9-4.38-2.12-5.52-1.22-1.14-3.06-1.71-5.55-1.71-2.7,0-4.72.97-6.06,2.9-1.34,1.93-2.03,4.93-2.06,9v2.97c0,4.24.64,7.35,1.93,9.31,1.29,1.96,3.31,2.94,6.09,2.94,2.5,0,4.37-.57,5.6-1.71,1.23-1.14,1.94-2.91,2.12-5.3h8.1Zm-47.81,13.09h8.09v-39.29h-8.09v39.29Zm-23.5-9.74l8.9-29.55h9.01l-13.68,39.29h-8.45l-13.63-39.29h8.99l8.85,29.55Zm-42.55-11.2h6.53c2.03,0,3.61-.52,4.72-1.55,1.11-1.04,1.67-2.46,1.67-4.28s-.53-3.31-1.58-4.37c-1.05-1.06-2.67-1.59-4.84-1.59h-6.5v11.79Zm6.45,6.56h-6.45v14.38h-8.09v-39.29h14.6c4.64,0,8.22,1.03,10.74,3.1,2.52,2.07,3.78,4.99,3.78,8.77,0,2.68-.58,4.92-1.74,6.71-1.16,1.79-2.92,3.21-5.28,4.28l8.5,16.05v.38h-8.69l-7.37-14.38Zm-23.37-2.64h-15.54v10.52h18.24v6.5h-26.34v-39.29h26.28v6.56h-18.19v9.36h15.54v6.34Zm-38.61,6.72c0-1.53-.54-2.7-1.62-3.52-1.08-.82-3.02-1.68-5.83-2.59-2.81-.91-5.03-1.8-6.66-2.68-4.46-2.41-6.69-5.66-6.69-9.74,0-2.12.6-4.02,1.79-5.68,1.2-1.66,2.91-2.96,5.15-3.9,2.24-.94,4.75-1.4,7.54-1.4s5.31.51,7.5,1.52c2.2,1.02,3.9,2.45,5.11,4.3,1.21,1.85,1.82,3.96,1.82,6.31h-8.09c0-1.8-.57-3.2-1.7-4.2-1.13-1-2.72-1.5-4.78-1.5s-3.52.42-4.61,1.26c-1.1.84-1.65,1.94-1.65,3.3,0,1.28.64,2.35,1.93,3.21,1.29.86,3.18,1.67,5.68,2.43,4.6,1.39,7.96,3.1,10.07,5.15,2.1,2.05,3.16,4.61,3.16,7.66,0,3.4-1.29,6.07-3.86,8-2.57,1.93-6.04,2.9-10.39,2.9-3.02,0-5.77-.55-8.26-1.66-2.48-1.11-4.38-2.62-5.68-4.55-1.3-1.93-1.96-4.16-1.96-6.69h8.12c0,4.33,2.59,6.5,7.77,6.5,1.92,0,3.43-.39,4.51-1.17,1.08-.78,1.62-1.88,1.62-3.28Zm295.3-85.73h-12.03v32.73h-8.1v-32.73h-11.87v-6.56h32v6.56Zm-37.24,32.73h-8.09l-15.76-25.85v25.85h-8.09v-39.29h8.09l15.78,25.9v-25.9h8.07v39.29Zm-40.77-17.03h-15.54v10.52h18.24v6.5h-26.34v-39.29h26.28v6.56h-18.19v9.36h15.54v6.34Zm-62.84-22.26l10.09,28.49,10.04-28.49h10.63v39.29h-8.12v-10.74l.81-18.54-10.6,29.28h-5.56l-10.58-29.25.81,18.51v10.74h-8.09v-39.29h10.58Zm-39.5,18.89h7.23c2.14,0,3.77-.5,4.9-1.51,1.12-1.01,1.69-2.45,1.69-4.32s-.57-3.48-1.7-4.67c-1.13-1.19-2.7-1.8-4.7-1.84h-7.42v12.33Zm0,6.56v13.84h-8.09v-39.29h15.33c2.95,0,5.54.54,7.78,1.62,2.24,1.08,3.96,2.61,5.17,4.6,1.21,1.99,1.81,4.25,1.81,6.79,0,3.85-1.32,6.89-3.95,9.11-2.64,2.22-6.28,3.33-10.94,3.33h-7.1Zm-25.07,13.84h8.09v-39.29h-8.09v39.29Zm-8.53-39.29v25.88c0,4.3-1.34,7.7-4.03,10.2-2.69,2.5-6.36,3.75-11.02,3.75s-8.23-1.21-10.93-3.64c-2.7-2.43-4.08-5.77-4.13-10.01v-26.17h8.09v25.93c0,2.57.62,4.45,1.85,5.63,1.23,1.18,2.94,1.77,5.11,1.77,4.55,0,6.86-2.39,6.93-7.18v-26.15h8.12Zm-45.25,18.75c0-4.12-.74-7.25-2.21-9.39-1.47-2.14-3.58-3.21-6.31-3.21s-4.81,1.06-6.29,3.17c-1.48,2.11-2.22,5.21-2.24,9.3v1.92c0,4.01.74,7.12,2.21,9.34,1.47,2.21,3.6,3.32,6.37,3.32s4.8-1.07,6.26-3.2c1.46-2.13,2.2-5.24,2.21-9.32v-1.92Zm8.2,1.78c0,3.67-.59,6.86-1.78,9.57-1.19,2.71-2.83,4.88-4.94,6.52l6.53,5.13-5.15,4.56-8.36-6.72c-.95.16-1.94.24-2.97.24-3.25,0-6.16-.78-8.71-2.35s-4.53-3.8-5.94-6.7c-1.4-2.91-2.11-6.25-2.13-10.02v-1.94c0-3.87.7-7.27,2.09-10.21,1.39-2.94,3.36-5.2,5.91-6.77,2.54-1.57,5.46-2.36,8.73-2.36s6.18.79,8.73,2.36c2.55,1.57,4.52,3.83,5.91,6.77,1.39,2.94,2.09,6.34,2.09,10.19v1.75Zm-41.04,1.73h-15.54v10.52h18.24v6.5h-26.33v-39.29h26.28v6.56h-18.19v9.36h15.54v6.34Z"></path></g></svg>